<?xml version="1.0" encoding="UTF-8"?>
<svg xmlns="http://www.w3.org/2000/svg" xmlns:xlink="http://www.w3.org/1999/xlink" width="108px" height="108px" viewBox="0 0 108 108" version="1.1">
<g id="surface1">
<rect x="0" y="0" width="108" height="108" style="fill:rgb(1.176471%,57.647059%,76.470588%);fill-opacity:1;stroke:none;"/>
<path style=" stroke:none;fill-rule:nonzero;fill:rgb(100%,100%,100%);fill-opacity:1;" d="M 16.464844 75.195312 C 18.445312 75.195312 19.054688 74.835938 19.449219 74.269531 C 19.636719 73.957031 19.765625 73.609375 19.828125 73.25 C 19.867188 73.058594 19.90625 72.945312 20.007812 72.945312 C 20.113281 72.945312 20.160156 73.023438 20.160156 73.382812 C 20.160156 73.96875 19.894531 75.082031 19.78125 75.554688 C 19.667969 76.027344 19.648438 76.046875 19.214844 76.046875 C 16.058594 76.046875 12.882812 75.953125 9.574219 75.953125 C 9.347656 75.953125 9.234375 75.933594 9.234375 75.800781 C 9.234375 75.707031 9.273438 75.613281 9.5 75.273438 C 12.316406 71.019531 15.171875 66.765625 17.796875 62.492188 L 13.679688 62.492188 C 12.714844 62.492188 11.5625 62.550781 10.957031 62.871094 C 10.390625 63.179688 9.992188 63.726562 9.878906 64.363281 C 9.839844 64.648438 9.765625 64.703125 9.667969 64.703125 C 9.574219 64.703125 9.554688 64.609375 9.554688 64.457031 C 9.554688 64.230469 9.839844 62.511719 9.933594 61.9375 C 9.972656 61.671875 10.011719 61.578125 10.113281 61.578125 C 10.292969 61.578125 10.398438 61.691406 10.90625 61.710938 C 12.707031 61.785156 13.609375 61.765625 14.195312 61.765625 L 19.46875 61.765625 C 19.753906 61.765625 19.847656 61.804688 19.847656 61.917969 C 19.851562 62 19.824219 62.082031 19.769531 62.144531 C 17.03125 66.492188 14.175781 70.839844 11.3125 75.1875 Z M 16.464844 75.195312 "/>
<path style=" stroke:none;fill-rule:nonzero;fill:rgb(100%,100%,100%);fill-opacity:1;" d="M 25.59375 71.398438 C 25.503906 71.398438 25.425781 71.460938 25.40625 71.546875 L 24.574219 73.910156 C 24.402344 74.339844 24.292969 74.792969 24.25 75.253906 C 24.25 75.59375 24.460938 75.742188 24.875 75.742188 L 25.007812 75.742188 C 25.179688 75.742188 25.234375 75.800781 25.234375 75.878906 C 25.234375 75.953125 25.082031 76.007812 24.953125 76.007812 C 24.535156 76.007812 23.667969 75.953125 23.457031 75.953125 C 23.25 75.953125 22.4375 76.007812 21.644531 76.007812 C 21.4375 76.007812 21.339844 75.972656 21.339844 75.878906 C 21.339844 75.785156 21.417969 75.742188 21.566406 75.742188 C 21.695312 75.746094 21.820312 75.742188 21.945312 75.726562 C 22.757812 75.652344 23.078125 75.027344 23.402344 74.230469 L 27.183594 64.273438 C 27.390625 63.734375 27.445312 63.628906 27.578125 63.628906 C 27.671875 63.628906 27.75 63.707031 27.957031 64.234375 C 28.21875 64.859375 30.789062 71.453125 31.792969 73.816406 C 32.417969 75.308594 32.964844 75.554688 33.234375 75.652344 C 33.441406 75.71875 33.65625 75.75 33.875 75.742188 C 34.007812 75.742188 34.101562 75.78125 34.101562 75.878906 C 34.101562 75.972656 34.027344 76.007812 33.820312 76.007812 C 33.609375 76.007812 32.210938 76.007812 30.9375 75.972656 C 30.578125 75.953125 30.46875 75.933594 30.46875 75.839844 C 30.476562 75.769531 30.53125 75.71875 30.597656 75.707031 C 30.671875 75.667969 30.789062 75.574219 30.671875 75.289062 L 29.179688 71.492188 C 29.152344 71.433594 29.09375 71.398438 29.03125 71.398438 Z M 28.800781 70.738281 C 28.875 70.738281 28.875 70.683594 28.855469 70.625 L 27.363281 66.449219 C 27.269531 66.183594 27.25 66.183594 27.15625 66.449219 L 25.738281 70.621094 C 25.703125 70.699219 25.738281 70.738281 25.777344 70.738281 Z M 28.800781 70.738281 "/>
<path style=" stroke:none;fill-rule:nonzero;fill:rgb(100%,100%,100%);fill-opacity:1;" d="M 36.421875 68.507812 C 36.421875 66.011719 36.421875 65.558594 36.386719 65.046875 C 36.347656 64.539062 36.214844 64.253906 35.628906 64.148438 C 35.480469 64.125 35.328125 64.113281 35.175781 64.109375 C 35.042969 64.109375 34.96875 64.074219 34.96875 63.996094 C 34.96875 63.921875 35.023438 63.863281 35.195312 63.863281 C 36.007812 63.863281 37.160156 63.921875 37.199219 63.921875 C 37.367188 63.921875 38.652344 63.863281 39.179688 63.863281 C 40.238281 63.863281 41.390625 63.960938 42.277344 64.585938 C 43 65.128906 43.417969 65.984375 43.414062 66.890625 C 43.414062 67.929688 42.902344 69.25 41.410156 70.460938 C 42.789062 72.160156 43.929688 73.5625 44.886719 74.5625 C 45.785156 75.488281 46.359375 75.644531 46.890625 75.714844 C 47.019531 75.734375 47.417969 75.753906 47.476562 75.753906 C 47.625 75.753906 47.683594 75.8125 47.683594 75.886719 C 47.683594 75.960938 47.609375 76.019531 47.34375 76.019531 L 46.019531 76.019531 C 45.132812 76.019531 44.71875 75.960938 44.300781 75.789062 C 43.507812 75.449219 42.941406 74.601562 41.960938 73.332031 C 41.222656 72.433594 40.46875 71.40625 40.148438 71.011719 C 40.09375 70.9375 40.011719 70.894531 39.921875 70.898438 L 37.980469 70.867188 C 37.90625 70.867188 37.886719 70.886719 37.886719 70.964844 L 37.886719 71.226562 C 37.886719 72.738281 37.886719 74.117188 37.980469 74.800781 C 38.039062 75.253906 38.09375 75.628906 38.71875 75.699219 C 38.90625 75.71875 39.113281 75.738281 39.257812 75.738281 C 39.402344 75.738281 39.503906 75.792969 39.503906 75.851562 C 39.503906 75.945312 39.429688 76 39.238281 76 C 38.257812 76 37.199219 75.945312 37.125 75.945312 C 36.820312 75.945312 35.988281 76 35.476562 76 C 35.296875 76 35.214844 75.964844 35.214844 75.851562 C 35.214844 75.792969 35.328125 75.738281 35.441406 75.738281 C 35.578125 75.742188 35.71875 75.730469 35.855469 75.699219 C 36.179688 75.644531 36.292969 75.433594 36.347656 74.980469 C 36.441406 74.296875 36.421875 72.75 36.421875 71.332031 Z M 37.878906 69.847656 C 37.878906 69.941406 37.898438 70.027344 37.972656 70.074219 C 38.21875 70.207031 38.976562 70.320312 39.65625 70.320312 C 40.050781 70.320312 40.523438 70.300781 40.914062 70.035156 C 41.484375 69.675781 41.859375 68.847656 41.859375 67.636719 C 41.859375 65.578125 40.765625 64.445312 39.082031 64.445312 C 38.714844 64.433594 38.347656 64.46875 37.988281 64.539062 C 37.917969 64.566406 37.871094 64.632812 37.875 64.707031 Z M 37.878906 69.847656 "/>
<path style=" stroke:none;fill-rule:nonzero;fill:rgb(100%,100%,100%);fill-opacity:1;" d="M 25.273438 96.792969 C 25.347656 97.472656 25.480469 98.53125 26.292969 98.792969 C 26.671875 98.910156 27.066406 98.96875 27.464844 98.964844 C 27.558594 98.964844 27.671875 98.984375 27.671875 99.078125 C 27.671875 99.171875 27.617188 99.230469 27.390625 99.230469 C 26.972656 99.230469 24.820312 99.171875 24.121094 99.113281 C 23.683594 99.078125 23.589844 99.023438 23.589844 98.933594 C 23.589844 98.847656 23.628906 98.839844 23.722656 98.804688 C 23.855469 98.746094 23.835938 98.464844 23.796875 98.125 L 22.898438 88.257812 L 18.21875 98.199219 C 17.820312 99.03125 17.765625 99.199219 17.59375 99.199219 C 17.460938 99.199219 17.367188 99.019531 17.007812 98.332031 C 16.515625 97.40625 14.890625 94.132812 14.796875 93.945312 C 14.625 93.605469 12.457031 88.9375 12.246094 88.429688 L 11.472656 97.328125 C 11.453125 97.632812 11.433594 97.898438 11.433594 98.21875 C 11.433594 98.691406 11.660156 98.839844 11.941406 98.898438 C 12.164062 98.949219 12.394531 98.976562 12.625 98.972656 C 12.738281 98.972656 12.804688 99.011719 12.804688 99.070312 C 12.804688 99.199219 12.710938 99.238281 12.519531 99.238281 C 11.824219 99.238281 10.859375 99.183594 10.707031 99.183594 C 10.554688 99.183594 9.625 99.238281 9.117188 99.238281 C 8.929688 99.238281 8.796875 99.21875 8.796875 99.085938 C 8.796875 99.011719 8.890625 98.972656 8.976562 98.972656 C 9.167969 98.976562 9.359375 98.957031 9.546875 98.917969 C 10.167969 98.804688 10.207031 98.125 10.300781 97.347656 L 11.660156 85.0625 C 11.679688 84.855469 11.753906 84.6875 11.871094 84.6875 C 11.984375 84.6875 12.058594 84.761719 12.152344 84.96875 L 17.933594 96.847656 L 23.492188 84.980469 C 23.566406 84.8125 23.644531 84.679688 23.777344 84.679688 C 23.910156 84.679688 23.957031 84.832031 24.003906 85.1875 Z M 25.273438 96.792969 "/>
<path style=" stroke:none;fill-rule:nonzero;fill:rgb(100%,100%,100%);fill-opacity:1;" d="M 28.902344 93.125 C 28.902344 90.605469 30.847656 86.851562 35.515625 86.851562 C 39.257812 86.851562 42.121094 89.082031 42.121094 92.878906 C 42.121094 96.492188 39.453125 99.4375 35.429688 99.4375 C 30.789062 99.4375 28.902344 95.996094 28.902344 93.125 Z M 40.335938 93.351562 C 40.335938 89.554688 37.996094 87.4375 35.402344 87.4375 C 32.777344 87.4375 30.660156 89.058594 30.660156 92.632812 C 30.660156 96.335938 32.71875 98.792969 35.894531 98.792969 C 37.160156 98.792969 40.335938 98.152344 40.335938 93.351562 Z M 40.335938 93.351562 "/>
<path style=" stroke:none;fill-rule:nonzero;fill:rgb(100%,100%,100%);fill-opacity:1;" d="M 45.589844 87.625 C 45.589844 87.039062 45.644531 86.851562 45.796875 86.851562 C 45.949219 86.851562 46.25 87.226562 46.382812 87.359375 C 46.554688 87.550781 49.179688 90.242188 51.828125 92.941406 C 53.300781 94.382812 55.191406 96.324219 55.679688 96.777344 L 55.472656 88.921875 C 55.453125 87.898438 55.34375 87.558594 54.832031 87.425781 C 54.589844 87.382812 54.34375 87.355469 54.09375 87.351562 C 53.914062 87.351562 53.867188 87.273438 53.867188 87.199219 C 53.867188 87.125 54.019531 87.085938 54.207031 87.085938 C 55.019531 87.085938 55.8125 87.144531 55.984375 87.144531 C 56.152344 87.144531 56.757812 87.085938 57.496094 87.085938 C 57.703125 87.085938 57.761719 87.105469 57.761719 87.199219 C 57.761719 87.292969 57.703125 87.332031 57.589844 87.351562 C 57.476562 87.367188 57.328125 87.371094 57.117188 87.40625 C 56.683594 87.5 56.550781 87.691406 56.550781 88.824219 L 56.519531 98.304688 C 56.519531 99.25 56.480469 99.34375 56.351562 99.34375 C 56.21875 99.34375 56.027344 99.210938 55.101562 98.339844 C 55.027344 98.304688 52.402344 95.695312 50.757812 94.085938 C 48.789062 92.046875 46.902344 90.082031 46.4375 89.585938 L 46.679688 96.96875 C 46.71875 98.269531 46.832031 98.769531 47.304688 98.875 C 47.558594 98.933594 47.820312 98.957031 48.078125 98.953125 C 48.230469 98.953125 48.304688 99.007812 48.304688 99.085938 C 48.304688 99.160156 48.214844 99.214844 48.003906 99.214844 C 46.984375 99.214844 46.304688 99.160156 46.171875 99.160156 C 46.039062 99.160156 45.339844 99.214844 44.527344 99.214844 C 44.355469 99.214844 44.242188 99.199219 44.242188 99.085938 C 44.242188 99.007812 44.320312 98.953125 44.507812 98.953125 C 44.707031 98.957031 44.902344 98.929688 45.09375 98.875 C 45.507812 98.746094 45.605469 98.234375 45.605469 96.855469 C 45.589844 87.851562 45.609375 90.761719 45.589844 87.625 Z M 45.589844 87.625 "/>
<path style=" stroke:none;fill-rule:nonzero;fill:rgb(100%,100%,100%);fill-opacity:1;" d="M 61.957031 91.726562 C 61.957031 89.25 61.957031 88.796875 61.921875 88.285156 C 61.882812 87.773438 61.75 87.492188 61.199219 87.386719 C 61.050781 87.363281 60.898438 87.351562 60.746094 87.347656 C 60.613281 87.347656 60.5 87.292969 60.5 87.234375 C 60.5 87.121094 60.59375 87.085938 60.785156 87.085938 C 61.164062 87.085938 61.671875 87.121094 62.730469 87.140625 C 62.824219 87.140625 66.1875 87.140625 66.566406 87.121094 C 66.816406 87.125 67.0625 87.09375 67.304688 87.027344 C 67.367188 86.996094 67.4375 86.976562 67.511719 86.96875 C 67.546875 86.96875 67.585938 87.007812 67.585938 87.105469 C 67.585938 87.199219 67.472656 87.480469 67.433594 87.953125 C 67.417969 88.277344 67.398438 88.578125 67.378906 88.9375 C 67.378906 89.105469 67.339844 89.21875 67.246094 89.21875 C 67.152344 89.21875 67.113281 89.144531 67.113281 89.011719 C 67.105469 88.804688 67.058594 88.597656 66.980469 88.40625 C 66.867188 88.027344 66.699219 87.898438 65.753906 87.839844 C 65.507812 87.820312 63.636719 87.800781 63.59375 87.800781 C 63.550781 87.800781 63.5 87.839844 63.5 87.953125 L 63.5 92.242188 C 63.5 92.355469 63.519531 92.433594 63.613281 92.433594 C 63.839844 92.433594 65.773438 92.414062 66.164062 92.375 C 66.601562 92.355469 66.882812 92.300781 67.035156 92.089844 C 67.109375 91.980469 67.164062 91.941406 67.242188 91.941406 C 67.277344 91.941406 67.316406 91.960938 67.316406 92.054688 C 67.316406 92.152344 67.242188 92.507812 67.183594 93.054688 C 67.128906 93.605469 67.128906 93.957031 67.109375 94.207031 C 67.089844 94.359375 67.050781 94.417969 66.976562 94.417969 C 66.902344 94.417969 66.863281 94.304688 66.863281 94.171875 C 66.859375 94.019531 66.84375 93.867188 66.808594 93.71875 C 66.730469 93.472656 66.617188 93.207031 65.90625 93.148438 C 65.472656 93.113281 63.941406 93.074219 63.640625 93.074219 C 63.527344 93.074219 63.507812 93.132812 63.507812 93.207031 L 63.507812 94.585938 C 63.507812 95.171875 63.488281 96.835938 63.507812 97.15625 C 63.546875 97.855469 63.640625 98.214844 64.035156 98.386719 C 64.320312 98.519531 64.773438 98.554688 65.414062 98.554688 C 65.898438 98.582031 66.382812 98.542969 66.855469 98.441406 C 67.421875 98.273438 67.554688 97.902344 67.707031 97.195312 C 67.742188 97.015625 67.800781 96.929688 67.875 96.929688 C 67.988281 96.929688 67.988281 97.101562 67.988281 97.214844 C 67.988281 97.328125 67.839844 98.539062 67.78125 98.859375 C 67.707031 99.234375 67.574219 99.273438 66.949219 99.273438 C 65.703125 99.273438 65.171875 99.234375 64.511719 99.234375 C 63.851562 99.234375 62.976562 99.179688 62.28125 99.179688 C 61.847656 99.179688 61.484375 99.234375 61.03125 99.234375 C 60.863281 99.234375 60.769531 99.199219 60.769531 99.105469 C 60.773438 99.0625 60.792969 99.023438 60.828125 99 C 60.863281 98.972656 60.90625 98.964844 60.949219 98.972656 C 61.074219 98.96875 61.203125 98.949219 61.324219 98.914062 C 61.667969 98.839844 61.894531 98.59375 61.929688 97.421875 C 61.949219 96.777344 61.96875 96.003906 61.96875 94.570312 Z M 61.957031 91.726562 "/>
<path style=" stroke:none;fill-rule:nonzero;fill:rgb(100%,100%,100%);fill-opacity:1;" d="M 74.375 95.109375 C 74.375 94.207031 74.242188 93.859375 73.957031 93.371094 C 73.84375 93.164062 71.652344 89.589844 71.066406 88.777344 C 70.554688 88.058594 70.367188 87.832031 70.101562 87.625 C 69.84375 87.441406 69.53125 87.339844 69.214844 87.339844 C 69.101562 87.339844 69.007812 87.285156 69.007812 87.191406 C 69.007812 87.132812 69.082031 87.078125 69.234375 87.078125 C 69.535156 87.078125 70.972656 87.132812 71.011719 87.132812 C 71.125 87.132812 71.746094 87.078125 72.449219 87.078125 C 72.628906 87.078125 72.695312 87.132812 72.695312 87.191406 C 72.695312 87.246094 72.640625 87.304688 72.488281 87.339844 C 72.222656 87.398438 72.183594 87.492188 72.183594 87.644531 C 72.21875 87.867188 72.300781 88.082031 72.429688 88.269531 C 72.675781 88.738281 75.171875 92.746094 75.453125 93.21875 C 75.757812 92.558594 77.875 89.101562 78.136719 88.625 C 78.496094 88.003906 78.574219 87.832031 78.574219 87.625 C 78.574219 87.378906 78.347656 87.378906 78.136719 87.339844 C 77.988281 87.324219 77.929688 87.265625 77.929688 87.191406 C 77.929688 87.113281 77.96875 87.078125 78.15625 87.078125 C 78.613281 87.078125 79.007812 87.132812 79.308594 87.132812 C 79.554688 87.132812 80.652344 87.078125 80.972656 87.078125 C 81.144531 87.078125 81.199219 87.132812 81.199219 87.191406 C 81.199219 87.285156 81.105469 87.339844 80.972656 87.339844 C 80.578125 87.359375 80.292969 87.398438 80.027344 87.589844 C 79.761719 87.777344 79.632812 87.949219 79.328125 88.363281 C 78.234375 89.875 76.398438 92.953125 76.117188 93.617188 C 75.890625 94.203125 75.925781 94.617188 75.925781 95.109375 L 75.925781 96.488281 C 75.925781 96.621094 75.925781 97.320312 75.964844 98 C 76.003906 98.453125 76.039062 98.773438 76.625 98.886719 C 76.855469 98.9375 77.089844 98.960938 77.328125 98.964844 C 77.476562 98.964844 77.53125 99.023438 77.53125 99.078125 C 77.53125 99.171875 77.476562 99.230469 77.304688 99.230469 C 76.363281 99.230469 75.191406 99.171875 75.132812 99.171875 C 75.078125 99.171875 73.960938 99.230469 73.433594 99.230469 C 73.242188 99.230469 73.167969 99.171875 73.167969 99.078125 C 73.167969 99.023438 73.222656 98.964844 73.347656 98.964844 C 73.507812 98.964844 73.664062 98.945312 73.820312 98.90625 C 74.140625 98.851562 74.273438 98.453125 74.3125 98.007812 C 74.367188 97.328125 74.367188 96.648438 74.367188 96.496094 Z M 74.375 95.109375 "/>
</g>
</svg>
